<svg xmlns="http://www.w3.org/2000/svg" viewBox="0 0 140 140" role="img" aria-labelledby="title">
  <title id="title">Samriddhi sprout logo</title>
  <defs>
    <linearGradient id="leafMain" x1="0%" y1="0%" x2="100%" y2="100%">
      <stop offset="0%" stop-color="#2f9e5b"/>
      <stop offset="100%" stop-color="#166534"/>
    </linearGradient>
    <linearGradient id="leafSide" x1="0%" y1="0%" x2="100%" y2="100%">
      <stop offset="0%" stop-color="#34d399"/>
      <stop offset="100%" stop-color="#15803d"/>
    </linearGradient>
    <linearGradient id="sunRise" x1="0%" y1="0%" x2="100%" y2="100%">
      <stop offset="0%" stop-color="#fbbf24"/>
      <stop offset="100%" stop-color="#f97316"/>
    </linearGradient>
  </defs>
  <rect x="6" y="6" width="128" height="128" rx="32" fill="#fef9f3"/>
  <g transform="translate(0,-4)">
    <ellipse cx="70" cy="56" rx="11" ry="28" fill="url(#leafMain)"/>
    <ellipse cx="54" cy="64" rx="9" ry="24" fill="url(#leafSide)" transform="rotate(-22 54 64)"/>
    <ellipse cx="86" cy="64" rx="9" ry="24" fill="url(#leafSide)" transform="rotate(22 86 64)"/>
    <path d="M70 76c-7.2 13.2-18 22.6-32.8 27.4l2.6 4.8c12.8-4.2 23.3-12.5 30.2-22.6 6.9 10.1 17.4 18.4 30.2 22.6l2.6-4.8C88 98.6 77.2 89.2 70 76z" fill="#14532d" opacity=".18"/>
    <path d="M32 104h76c-8.6-22.6-22.6-34-38-34s-29.4 11.4-38 34z" fill="url(#sunRise)"/>
    <path d="M38.5 102h62.9c-7.2-17-18.9-25.4-31.4-25.4S45.7 85 38.5 102z" fill="#fde68a" opacity=".6"/>
  </g>
</svg>
